<svg width="256" height="256" viewBox="0 0 256 256" fill="none" xmlns="http://www.w3.org/2000/svg">
<path d="M20.9 103.16H23.08V118.9H20.9V103.16ZM17.1 107.28H27.46V109.02H17.1V107.28ZM17.66 115.34H27.08V117.08H17.66V115.34ZM18.16 112.62H26.58V114.36H18.16V112.62ZM13.4 104.62H16.18V106.54H13.4V104.62ZM14.42 110.12H16.62V111.86H14.42V110.12ZM15.64 104.62H15.92L16.26 104.54L17.76 104.92C16.94 107.2 15.66 110.26 14.6 112.68L12.64 112.22C13.72 109.82 15.02 106.56 15.64 104.86V104.62ZM16.04 110.12H16.42L16.8 110.08L18.06 110.28C17.66 115.92 16.38 119.66 13.68 121.76C13.4 121.24 12.8 120.4 12.36 119.98C14.54 118.44 15.74 114.88 16.04 110.46V110.12ZM14.54 113.1C15.62 118.36 18.18 119.4 21.96 119.42C22.88 119.42 26.48 119.42 27.62 119.36C27.3 119.88 26.98 120.9 26.86 121.52H21.84C17.06 121.52 14.18 120.14 12.74 113.62L14.54 113.1ZM18.4 104.64H26.46V111.68H18.4V109.94H24.44V106.38H18.4V104.64ZM11.8 103.08L13.94 103.72C12.9 107.04 11.18 110.64 9.28 112.94C9.12 112.38 8.56 110.98 8.22 110.36C9.7 108.56 11.02 105.84 11.8 103.08ZM10.44 108.86L12.5 106.8L12.54 106.84V121.78H10.44V108.86ZM36.98 112.92H39.46V121.8H36.98V112.92ZM34.96 110.48V111.72H40.92V110.48H34.96ZM32.66 108.78H43.38V113.42H32.66V108.78ZM30.74 114.62H44.2V116.76H33.16V120.92H30.74V114.62ZM43.06 114.62H45.52V118.74C45.52 119.82 45.3 120.44 44.5 120.78C43.7 121.12 42.62 121.14 41.18 121.14C41.06 120.48 40.72 119.56 40.4 118.96C41.3 119 42.38 119 42.66 119C42.96 118.98 43.06 118.92 43.06 118.7V114.62ZM36.72 103H39.2V106.68H36.72V103ZM29.4 105.76H46.66V110.6H44.28V107.82H31.7V110.6H29.4V105.76ZM31 104L33.18 103.14C33.76 103.78 34.36 104.66 34.64 105.28L32.34 106.3C32.12 105.66 31.54 104.68 31 104ZM42.7 103.16L45.28 103.94C44.56 104.78 43.84 105.56 43.28 106.08L41.26 105.36C41.76 104.74 42.36 103.82 42.7 103.16ZM48.98 109.08H66.98V111.2H48.98V109.08ZM50.72 105.18H62.16V107.26H50.72V105.18ZM54.24 116.06H63.18V117.86H54.24V116.06ZM54.24 119.2H63.18V121.22H54.24V119.2ZM55.44 103.02H57.8V110.26H55.44V103.02ZM64.24 103.6L66.3 104.66C62.38 110.12 56.28 114.14 49.8 116.52C49.52 116 48.8 115 48.36 114.52C54.86 112.44 60.74 108.62 64.24 103.6ZM52.9 112.8H64.7V121.74H62.2V114.76H55.3V121.82H52.9V112.8ZM70.76 106.04C71.28 106.12 72.12 106.18 72.66 106.18H83.56C84.16 106.18 84.86 106.12 85.42 106.04V108.8C84.84 108.74 84.14 108.7 83.56 108.7H72.66C72.12 108.7 71.28 108.74 70.76 108.8V106.04ZM76.54 118.36V107.58H79.32V118.36H76.54ZM69.48 116.72C70.12 116.82 70.84 116.88 71.44 116.88H84.64C85.34 116.88 85.98 116.78 86.5 116.72V119.6C85.94 119.54 85.1 119.52 84.64 119.52H71.44C70.86 119.52 70.14 119.54 69.48 119.6V116.72ZM93.68 104.34C96.32 104.66 102.08 105.84 104.6 106.72L103.58 109.2C101.24 108.34 95.58 107.08 92.76 106.72L93.68 104.34ZM92.78 109.72C95.64 110.2 100.72 111.3 103.22 112.16L102.24 114.66C99.96 113.78 94.82 112.62 91.84 112.14L92.78 109.72ZM91.74 115.46C95.18 115.98 101.32 117.42 104.08 118.44L102.98 120.94C100.28 119.84 93.94 118.46 90.74 117.96L91.74 115.46ZM123.16 110.48C123.08 110.74 123 111.1 122.98 111.32C122.78 112.72 122.1 117.26 121.86 118.7H119.1C119.36 117.38 119.96 113.52 120.06 112.18C119.1 112.18 115.22 112.18 114.64 112.18C114.02 112.18 113.22 112.22 112.64 112.26V109.62C113.18 109.7 114.1 109.76 114.62 109.76C115.64 109.76 118.8 109.76 119.76 109.76C120.16 109.76 120.98 109.68 121.24 109.54L123.16 110.48ZM110.82 117.72C111.34 117.78 112.1 117.84 112.78 117.84C113.98 117.84 122.3 117.84 123.28 117.84C123.78 117.84 124.72 117.8 125.24 117.74V120.32C124.82 120.3 123.84 120.28 123.32 120.28C122.28 120.28 113.8 120.28 112.78 120.28C112.08 120.28 111.56 120.3 110.82 120.34V117.72ZM131.509 119.22C131.729 118.72 131.769 118.38 131.769 117.92C131.769 116.4 131.769 109.3 131.769 107.06C131.769 106.32 131.649 105.36 131.529 104.8H134.669C134.569 105.56 134.489 106.3 134.489 107.06C134.489 109.28 134.489 115.94 134.489 117.46C137.749 116.54 142.209 113.98 144.769 110.84L146.189 113.12C143.449 116.38 139.289 118.78 134.569 120.32C134.309 120.4 133.869 120.54 133.389 120.86L131.509 119.22ZM149.429 110.74C150.169 110.8 151.609 110.88 152.649 110.88C155.009 110.88 161.609 110.88 163.389 110.88C164.329 110.88 165.209 110.78 165.749 110.74V113.9C165.269 113.88 164.249 113.78 163.409 113.78C161.589 113.78 155.009 113.78 152.649 113.78C151.529 113.78 150.189 113.84 149.429 113.9V110.74ZM176.169 110.64C178.629 112.06 182.329 114.62 184.189 116.1L182.269 118.38C180.529 116.74 176.729 113.94 174.389 112.46L176.169 110.64ZM185.589 107.24C185.349 107.62 185.089 108.18 184.909 108.68C184.309 110.52 183.089 113.08 181.289 115.3C179.409 117.64 176.849 119.88 173.029 121.32L170.709 119.32C174.889 118.02 177.269 115.92 178.989 113.92C180.329 112.34 181.569 110.04 181.949 108.48H175.189L176.109 106.22H181.809C182.429 106.22 183.089 106.12 183.549 105.98L185.589 107.24ZM178.969 104.16C178.489 104.86 177.969 105.78 177.729 106.2C176.389 108.62 173.829 111.68 170.949 113.66L168.809 112C172.309 109.84 174.149 107.1 175.169 105.36C175.469 104.88 175.889 103.96 176.069 103.26L178.969 104.16ZM196.309 103.02H198.749V119.52C198.749 120.7 198.449 121.18 197.689 121.52C196.909 121.82 195.829 121.86 194.129 121.86C194.009 121.3 193.629 120.46 193.329 119.98C194.289 120.02 195.469 120 195.809 120C196.189 119.98 196.309 119.86 196.309 119.52V103.02ZM188.809 104.32H206.409V106.22H188.809V104.32ZM193.149 108.54V109.5H201.989V108.54H193.149ZM190.869 107.02H204.449V111.02H190.869V107.02ZM190.369 111.9H204.789V119.72H202.349V113.54H190.369V111.9ZM188.349 114.38H206.869V116.2H188.349V114.38ZM190.209 117.14H203.649V118.88H190.209V117.14ZM213.829 103.9H220.949V106H213.829V103.9ZM215.849 108.16H219.249V110.24H215.189L215.849 108.16ZM214.609 113.66L215.629 111.86C216.429 112.4 217.429 113.2 217.889 113.74L216.829 115.76C216.389 115.16 215.409 114.28 214.609 113.66ZM220.809 105.34H222.929V117.06H220.809V105.34ZM224.169 103.4H226.389V119.08C226.389 120.36 226.149 120.98 225.429 121.36C224.689 121.74 223.569 121.82 221.989 121.82C221.889 121.18 221.569 120.14 221.249 119.48C222.349 119.52 223.369 119.52 223.729 119.52C224.049 119.5 224.169 119.4 224.169 119.08V103.4ZM215.309 104.64L217.589 104.96C217.009 108.62 215.969 112.98 213.749 115.58C213.429 115.1 212.769 114.3 212.329 113.9C214.189 111.66 214.989 107.7 215.309 104.64ZM218.349 108.16H218.769L219.149 108.08L220.529 108.5C219.809 115.02 217.709 119.56 214.629 121.8C214.309 121.26 213.589 120.32 213.129 119.96C216.009 118 217.789 114.12 218.349 108.62V108.16ZM211.789 103.04L214.009 103.7C212.869 107.2 211.029 110.98 208.989 113.36C208.789 112.78 208.209 111.4 207.829 110.78C209.449 108.88 210.929 105.96 211.789 103.04ZM210.209 108.54L212.349 106.4L212.409 106.44V121.78H210.209V108.54ZM228.569 115.32H246.649V117.24H228.569V115.32ZM232.409 107.88H244.529V109.44H232.409V107.88ZM232.409 110.28H244.549V111.84H232.409V110.28ZM231.929 105.18H245.529V107.06H231.929V105.18ZM236.909 106.36H239.209V113.38H236.909V106.36ZM236.349 114.04H238.749V121.78H236.349V114.04ZM236.169 116.12L237.969 117C235.909 119.04 232.469 120.8 229.429 121.68C229.089 121.08 228.409 120.2 227.889 119.7C230.929 119.06 234.389 117.66 236.169 116.12ZM239.009 116.06C240.729 117.58 244.109 118.98 247.109 119.64C246.609 120.12 245.949 121 245.609 121.58C242.589 120.72 239.229 118.96 237.189 116.96L239.009 116.06ZM237.909 103.02L240.609 103.34C239.969 104.54 239.249 105.66 238.689 106.44L236.569 106.02C237.069 105.16 237.629 103.92 237.909 103.02ZM232.789 102.98L235.249 103.46C233.909 105.8 232.149 108.1 229.689 110.08C229.309 109.54 228.529 108.8 227.989 108.46C230.229 106.84 231.869 104.74 232.789 102.98ZM230.849 106.4H233.129V112.7H246.109V114.52H230.849V106.4Z" fill="black"/>
<path d="M80.492 142.436H84.716V143.768H80.492V142.436ZM80.6 145.868H84.584V147.188H80.6V145.868ZM80.204 150.032C81.368 149.768 83.108 149.3 84.764 148.844L84.956 150.104C83.444 150.56 81.812 151.028 80.564 151.4L80.204 150.032ZM86.516 145.268V146.012H89.672V145.268H86.516ZM86.516 147.116V147.848H89.672V147.116H86.516ZM86.516 143.444V144.176H89.672V143.444H86.516ZM85.184 142.268H91.076V149.036H85.184V142.268ZM88.208 148.508H89.588V151.388C89.588 151.748 89.624 151.784 89.816 151.784C89.9 151.784 90.212 151.784 90.32 151.784C90.524 151.784 90.572 151.592 90.596 150.392C90.872 150.608 91.448 150.836 91.808 150.92C91.688 152.564 91.352 153.02 90.476 153.02C90.26 153.02 89.768 153.02 89.564 153.02C88.448 153.02 88.208 152.612 88.208 151.4V148.508ZM86.084 148.856H87.488C87.308 150.908 86.792 152.36 84.128 153.164C83.984 152.804 83.624 152.252 83.336 151.976C85.616 151.4 85.928 150.38 86.084 148.856ZM81.944 142.964H83.336V150.02L81.944 150.224V142.964ZM97.244 141.824H98.72V143.744H97.244V141.824ZM92.852 142.868H103.136V145.448H101.648V144.128H94.28V145.448H92.852V142.868ZM93.92 145.076H102.164V146.24H93.92V145.076ZM92.756 148.88H103.304V150.128H92.756V148.88ZM94.112 146.96H101.924V148.124H94.112V146.96ZM98.708 149.132C99.416 150.716 100.976 151.592 103.472 151.856C103.172 152.156 102.8 152.732 102.62 153.116C99.872 152.672 98.336 151.532 97.412 149.396L98.708 149.132ZM97.208 144.392H98.66V147.728C98.66 149.84 97.784 151.904 93.416 153.08C93.26 152.768 92.84 152.216 92.528 151.916C96.68 150.968 97.208 149.324 97.208 147.716V144.392ZM104.432 144.704H115.592V146.096H104.432V144.704ZM106.916 150.932H115.16V152.312H106.916V150.932ZM109.88 147.992H112.964V149.336H109.88V147.992ZM106.16 142.172H107.648V153.08H106.16V142.172ZM109.28 141.92H110.732V149.828H109.28V141.92ZM112.34 142.04H113.792V149.804H112.34V142.04ZM119.168 145.316V146.192H124.832V145.316H119.168ZM119.168 143.384V144.236H124.832V143.384H119.168ZM117.728 142.22H126.332V147.344H117.728V142.22ZM123.644 146.588C124.436 147.668 125.996 148.556 127.676 148.976C127.352 149.264 126.92 149.828 126.716 150.2C124.952 149.624 123.392 148.472 122.432 147.032L123.644 146.588ZM120.368 146.576L121.64 147.068C120.668 148.46 119.048 149.636 117.344 150.248C117.128 149.888 116.696 149.348 116.384 149.06C118.004 148.604 119.576 147.656 120.368 146.576ZM119.516 148.772H121.004V149.6C121.004 150.752 120.656 152.288 118.256 153.164C118.064 152.804 117.584 152.264 117.272 151.988C119.276 151.34 119.516 150.32 119.516 149.552V148.772ZM121.268 142.808H122.72V146.768H121.268V142.808ZM123.176 148.796H124.676V153.044H123.176V148.796ZM135.092 143.78C134.924 145.004 134.684 146.408 134.264 147.824C133.544 150.248 132.512 151.736 131.204 151.736C129.86 151.736 128.756 150.26 128.756 148.232C128.756 145.472 131.168 143.096 134.276 143.096C137.24 143.096 139.124 145.16 139.124 147.788C139.124 150.308 137.576 152.096 134.552 152.564L133.64 151.148C134.108 151.088 134.444 151.028 134.768 150.956C136.292 150.584 137.492 149.492 137.492 147.728C137.492 145.844 136.316 144.5 134.24 144.5C131.696 144.5 130.304 146.576 130.304 148.088C130.304 149.3 130.784 149.888 131.24 149.888C131.756 149.888 132.212 149.12 132.716 147.5C133.064 146.372 133.328 144.992 133.448 143.732L135.092 143.78ZM145.676 142.424C145.592 142.76 145.484 143.3 145.424 143.564C145.256 144.38 144.956 145.844 144.632 147.068C144.2 148.748 143.396 151.196 142.736 152.624L141.068 152.06C141.776 150.848 142.688 148.34 143.144 146.66C143.444 145.532 143.72 144.212 143.804 143.504C143.864 143.06 143.876 142.568 143.84 142.28L145.676 142.424ZM142.616 144.224C144.08 144.224 145.772 143.996 147.332 143.624V145.124C145.844 145.472 143.96 145.676 142.604 145.676C142.016 145.676 141.572 145.652 141.152 145.628L141.104 144.128C141.728 144.2 142.124 144.224 142.616 144.224ZM146.384 146.06C147.056 145.988 147.92 145.94 148.7 145.94C149.384 145.94 150.104 145.976 150.8 146.048L150.776 147.488C150.164 147.416 149.432 147.332 148.712 147.332C147.884 147.332 147.14 147.368 146.384 147.464V146.06ZM147.032 149.072C146.948 149.42 146.876 149.804 146.876 150.068C146.876 150.596 147.224 150.992 148.52 150.992C149.324 150.992 150.152 150.908 151.004 150.752L150.944 152.276C150.272 152.372 149.468 152.444 148.508 152.444C146.48 152.444 145.4 151.76 145.4 150.548C145.4 149.984 145.508 149.408 145.604 148.94L147.032 149.072ZM160.388 142.592C160.28 142.928 160.172 143.516 160.1 143.804C159.596 145.928 158.816 148.424 157.664 149.876C156.56 151.268 155.792 151.892 154.688 151.892C153.692 151.892 152.78 151.052 152.78 149.504C152.78 147.896 153.704 146.18 155.108 145.28C156.392 144.452 157.604 144.152 158.888 144.152C161.36 144.152 163.136 145.82 163.136 148.316C163.136 150.86 161.324 152.324 158.816 152.708L157.904 151.316C160.544 151.088 161.576 149.744 161.576 148.244C161.576 146.612 160.46 145.484 158.732 145.484C157.484 145.484 156.512 145.94 155.672 146.552C154.736 147.212 154.184 148.388 154.184 149.372C154.184 149.96 154.436 150.332 154.856 150.332C155.48 150.332 156.14 149.564 156.764 148.616C157.688 147.26 158.384 145.052 158.636 143.576C158.696 143.228 158.732 142.724 158.72 142.436L160.388 142.592ZM155.324 142.988C155.384 143.396 155.48 143.792 155.576 144.14C155.948 145.484 156.584 147.32 157.136 148.184C157.544 148.832 158.108 149.588 158.672 150.116L157.448 151.088C156.98 150.56 156.62 150.104 156.236 149.492C155.504 148.424 154.784 146.504 154.232 144.728C154.1 144.308 153.956 143.924 153.74 143.492L155.324 142.988ZM169.364 143.612C170.84 143.816 173.24 143.756 174.524 143.6V145.148C173.06 145.292 170.876 145.292 169.376 145.148L169.364 143.612ZM170.324 148.736C170.228 149.144 170.18 149.432 170.18 149.744C170.18 150.284 170.648 150.608 171.872 150.608C172.94 150.608 173.828 150.512 174.872 150.284L174.908 151.904C174.128 152.06 173.156 152.144 171.8 152.144C169.736 152.144 168.74 151.4 168.74 150.176C168.74 149.696 168.812 149.228 168.956 148.616L170.324 148.736ZM167.516 142.808C167.432 143.06 167.276 143.672 167.228 143.888C167.06 144.68 166.64 147.08 166.64 148.28C166.64 148.52 166.652 148.82 166.688 149.06C166.868 148.652 167.06 148.244 167.24 147.836L167.984 148.424C167.636 149.432 167.24 150.728 167.12 151.364C167.084 151.544 167.048 151.808 167.048 151.928C167.06 152.06 167.06 152.264 167.072 152.432L165.692 152.516C165.452 151.7 165.224 150.236 165.224 148.604C165.224 146.792 165.584 144.776 165.716 143.84C165.764 143.516 165.824 143.06 165.836 142.676L167.516 142.808Z" fill="black"/>
<line x1="8" y1="131.5" x2="248" y2="131.5" stroke="black"/>
  <style>
    path {
      fill: black;
    }

    @media (prefers-color-scheme: dark) {
      path {
        fill: white;
      }
    }
  </style>
</svg>
