<svg width="300" height="200" viewBox="0 0 300 200" fill="none" xmlns="http://www.w3.org/2000/svg">
<path fill-rule="evenodd" clip-rule="evenodd" d="M118 100L207 7L212.414 12.4141L118 100H136L216 16L221.414 21.4141L136 100H154L225 25L230.414 30.4141L154 100H172L234 34L239.414 39.4141L172 100H190L243 43L248.414 48.4141L190 100H208L252 52L257.414 57.4141L208 100H226L261 61L266.414 66.4141L226 100H244L270 70L275.414 75.4141L244 100H262L279 79L284.414 84.4141L262 100H280L288 88L293.414 93.4141L280 100H300L200 200L150 150L100 200L0 100L100 0L150 50L200 0L203.414 3.41406L100.828 100H118ZM100 100V90L103.586 96.4141L107 93L100 90V72L112.586 87.4141L116 84L100 72V54L121.586 78.4141L125 75L100 54V36L130.586 69.4141L134 66L100 36V18L139.586 60.4141L143 57L100 18V2L4.82812 100H16L100 18L22.8281 100H34L100 36L40.8281 100H52L100 54L58.8281 100H70L100 72L76.8281 100H88L100 90L94.8281 100H100ZM100 180V191.656L143.828 143.828L141 141L100 180ZM100 162V173.656L134.828 134.828L132 132L100 162ZM100 144V155.656L125.828 125.828L123 123L100 144ZM100 126V137.656L116.828 116.828L114 114L100 126ZM100 108V119.656L107.828 107.828L105 105L100 108Z" fill="#1B1718"/>
</svg>
