<svg width="1887" height="163" viewBox="0 0 1887 163" fill="none" xmlns="http://www.w3.org/2000/svg">
<path d="M1816.07 146V116.302C1811.58 119.944 1806.45 123.493 1800.66 126.948C1794.87 130.31 1788.8 133.346 1782.44 136.054C1776.09 138.856 1769.84 141.144 1763.67 142.918C1763.39 142.171 1762.88 141.144 1762.13 139.836C1761.48 138.622 1760.78 137.361 1760.03 136.054C1759.28 134.746 1758.58 133.766 1757.93 133.112C1763.07 131.805 1768.44 130.077 1774.04 127.929C1779.74 125.781 1785.29 123.353 1790.71 120.644C1796.22 117.936 1801.17 115.181 1805.56 112.379H1760.59V102.713H1816.07V94.8686H1778.66V51.3018C1773.25 57.1854 1767.97 62.1818 1762.83 66.291C1761.99 65.2637 1760.64 63.9095 1758.77 62.2285C1757 60.5475 1755.45 59.3801 1754.15 58.7263C1757.42 56.485 1760.78 53.6832 1764.23 50.3212C1767.69 46.9591 1771 43.3169 1774.18 39.3945C1777.45 35.472 1780.39 31.5029 1783.01 27.4871C1785.62 23.4713 1787.77 19.6423 1789.45 16.0001L1800.94 20.2027C1800 22.2573 1798.79 24.4052 1797.29 26.6466C1795.89 28.888 1794.35 31.2228 1792.67 33.6509H1816.91C1818.21 31.2228 1819.52 28.4677 1820.83 25.3858C1822.23 22.3039 1823.26 19.5956 1823.91 17.2608L1836.52 18.2414C1835.68 20.5762 1834.6 23.1912 1833.3 26.0863C1832.08 28.888 1830.91 31.4095 1829.79 33.6509H1874.76V43.457H1828.67V51.3018H1865.8V60.2673H1828.67V68.1121H1865.8V77.2177H1828.67V85.0626H1876.16V94.8686H1828.67V102.713H1883.45V112.379H1838.76C1843.24 115.181 1848.24 117.936 1853.75 120.644C1859.26 123.259 1864.86 125.594 1870.56 127.649C1876.26 129.703 1881.67 131.384 1886.81 132.692C1886.25 133.346 1885.5 134.326 1884.57 135.634C1883.73 137.035 1882.93 138.389 1882.19 139.696C1881.53 141.097 1881.02 142.171 1880.65 142.918C1874.57 141.144 1868.36 138.902 1862.01 136.194C1855.76 133.486 1849.73 130.45 1843.94 127.088C1838.25 123.633 1833.16 120.131 1828.67 116.582V146H1816.07ZM1790.71 85.0626H1816.07V77.2177H1790.71V85.0626ZM1790.71 68.1121H1816.07V60.2673H1790.71V68.1121ZM1790.71 51.3018H1816.07V43.457H1790.71V51.3018Z" fill="#1B1718"/>
<path d="M1648.94 144.319C1648.57 143.759 1647.78 142.918 1646.56 141.797C1645.44 140.77 1644.23 139.696 1642.92 138.575C1641.7 137.455 1640.63 136.661 1639.7 136.194C1645.77 132.178 1651.32 127.088 1656.37 120.925C1661.5 114.667 1665.8 107.85 1669.26 100.472C1667.2 98.8843 1664.96 97.2967 1662.53 95.7091C1660.1 94.028 1658 92.7206 1656.23 91.7866L1662.11 81.8405C1663.89 82.7744 1665.85 83.8951 1667.99 85.2026C1670.14 86.4167 1672.15 87.6774 1674.02 88.9849C1675.14 85.5295 1676.07 82.0273 1676.82 78.4785C1677.57 74.9296 1678.08 71.4275 1678.36 67.972H1664.49C1662.44 74.2292 1660.01 80.1595 1657.21 85.7629C1654.5 91.273 1651.46 96.2227 1648.1 100.612C1647.54 99.9583 1646.61 99.2579 1645.3 98.5108C1644.09 97.6703 1642.83 96.8764 1641.52 96.1293C1640.3 95.3822 1639.32 94.8685 1638.58 94.5884C1644.37 86.7435 1648.85 77.9648 1652.02 68.2522C1655.29 58.4461 1657.44 48.2198 1658.47 37.5733H1645.16V26.2263H1696.43V37.5733H1670.24C1670.05 40.7486 1669.72 43.9239 1669.26 47.0992C1668.79 50.1811 1668.23 53.2163 1667.57 56.2048H1690.97C1690.88 70.0266 1688.96 82.4943 1685.22 93.6078C1681.49 104.628 1676.45 114.341 1670.1 122.746C1663.84 131.151 1656.79 138.342 1648.94 144.319ZM1625.13 145.58V68.2522C1623.35 71.4275 1621.49 74.4627 1619.52 77.3578C1617.66 80.1595 1615.84 82.681 1614.06 84.9224C1613.13 83.7083 1611.73 82.2608 1609.86 80.5797C1607.99 78.8987 1606.4 77.6846 1605.1 76.9375C1608.08 73.482 1611.07 69.2795 1614.06 64.3298C1617.05 59.2866 1619.9 53.9634 1622.61 48.3599C1625.31 42.6631 1627.65 37.153 1629.61 31.8298C1631.67 26.5065 1633.11 21.8369 1633.95 17.8211L1645.72 20.7629C1644.79 24.4986 1643.53 28.4677 1641.94 32.6703C1640.44 36.8729 1638.72 41.1688 1636.76 45.5582V145.58H1625.13ZM1705.96 144.459C1705.86 142.871 1705.54 140.77 1704.98 138.155C1704.42 135.634 1703.9 133.766 1703.44 132.552H1716.74C1718.61 132.552 1719.92 132.272 1720.67 131.711C1721.41 131.057 1721.79 129.703 1721.79 127.649V19.7823H1733.55V131.571C1733.55 140.163 1728.93 144.459 1719.69 144.459H1705.96ZM1698.67 110.978V37.2931H1710.3V110.978H1698.67Z" fill="#1B1718"/>
<path d="M1507.04 145.86C1506.85 144.086 1506.48 142.078 1505.91 139.836C1505.35 137.688 1504.75 135.867 1504.09 134.373H1517.54C1519.5 134.373 1520.9 134.046 1521.74 133.392C1522.59 132.739 1523.01 131.478 1523.01 129.61V121.485H1475.8V111.959H1523.01V103.834H1464.87V95.0086H1523.01V87.3039H1475.66V78.4785H1523.01V71.0539H1486.16V45.6983H1523.01V38.9742H1468.93V29.4483H1523.01V18.5216H1535.89V29.4483H1589.97V38.9742H1535.89V45.6983H1572.46V71.0539H1535.89V78.4785H1578.76V95.0086H1593.75V103.834H1578.76V121.485H1535.89V132.692C1535.89 137.268 1534.63 140.583 1532.11 142.638C1529.59 144.786 1525.71 145.86 1520.48 145.86H1507.04ZM1535.89 111.959H1566.29V103.834H1535.89V111.959ZM1535.89 95.0086H1566.29V87.3039H1535.89V95.0086ZM1498.07 62.3686H1523.01V54.3836H1498.07V62.3686ZM1535.89 62.3686H1560.55V54.3836H1535.89V62.3686Z" fill="#1B1718"/>
<path d="M1357.98 142.778C1357.42 141.938 1356.58 140.817 1355.46 139.416C1354.34 138.108 1353.17 136.801 1351.96 135.494C1350.75 134.186 1349.63 133.112 1348.6 132.272C1358.22 128.162 1367.28 123.026 1375.78 116.862C1384.37 110.605 1392.07 103.647 1398.89 95.9892C1395.15 93.2809 1391.46 90.8061 1387.82 88.5647C1384.27 86.2299 1381 84.4088 1378.02 83.1013C1378.67 82.541 1379.56 81.6071 1380.68 80.2996C1381.8 78.9921 1382.92 77.638 1384.04 76.2371C1385.16 74.8362 1385.95 73.8089 1386.42 73.1552C1389.6 74.6494 1392.96 76.4706 1396.51 78.6186C1400.06 80.7665 1403.61 83.148 1407.15 85.763C1414.25 76.2371 1419.76 66.3844 1423.68 56.2048C1421.91 56.2048 1419.39 56.2048 1416.12 56.2048C1412.85 56.2048 1409.21 56.2515 1405.19 56.3449C1401.27 56.3449 1397.44 56.3916 1393.71 56.4849C1390.06 56.4849 1386.94 56.4849 1384.32 56.4849C1379.93 63.0223 1375.26 69.2328 1370.31 75.1164C1365.36 80.9066 1360.18 86.1365 1354.76 90.8061C1353.55 89.6854 1351.82 88.3312 1349.58 86.7436C1347.34 85.0625 1345.38 83.8484 1343.7 83.1013C1349.67 78.3384 1355.42 72.6882 1360.93 66.1509C1366.44 59.6135 1371.48 52.6092 1376.06 45.138C1380.63 37.5733 1384.46 30.0553 1387.54 22.5841C1388.38 22.8643 1389.69 23.2845 1391.46 23.8448C1393.33 24.3118 1395.15 24.7788 1396.93 25.2457C1398.8 25.7127 1400.15 26.0395 1400.99 26.2263C1399.5 29.4016 1397.96 32.5769 1396.37 35.7522C1394.78 38.9275 1393.1 42.0094 1391.32 44.9979C1394.31 44.9979 1398 44.9979 1402.39 44.9979C1406.78 44.9979 1411.26 44.9979 1415.84 44.9979C1420.42 44.9045 1424.53 44.8111 1428.17 44.7177C1431.9 44.6243 1434.61 44.4842 1436.29 44.2974C1437.04 44.9512 1437.97 45.8384 1439.09 46.9591C1440.31 47.9864 1441.24 48.8269 1441.9 49.4806C1441.15 50.9749 1440.03 53.2163 1438.53 56.2048C1437.04 59.0999 1435.78 61.6681 1434.75 63.9095C1430.08 74.3693 1424.34 84.2687 1417.52 93.6078C1420.79 96.2227 1423.87 98.8377 1426.77 101.453C1429.66 103.974 1432.28 106.449 1434.61 108.877C1434.05 109.438 1433.02 110.418 1431.53 111.819C1430.13 113.22 1428.73 114.621 1427.33 116.022C1425.93 117.422 1424.9 118.496 1424.24 119.244C1422.38 116.909 1420.14 114.481 1417.52 111.959C1414.91 109.344 1412.06 106.729 1408.98 104.114C1402.16 111.866 1394.45 119.01 1385.86 125.547C1377.36 132.085 1368.07 137.828 1357.98 142.778Z" fill="#1B1718"/>
<path d="M1207.67 89.125C1207.67 88.2845 1207.67 86.977 1207.67 85.2026C1207.67 83.3348 1207.67 81.5137 1207.67 79.7392C1207.67 77.9648 1207.62 76.6574 1207.53 75.8168C1209.87 75.9102 1213.37 76.0036 1218.04 76.097C1222.71 76.097 1228.12 76.1437 1234.29 76.2371C1240.54 76.2371 1247.13 76.2838 1254.04 76.3772C1261.04 76.3772 1268 76.3772 1274.91 76.3772C1281.92 76.3772 1288.5 76.3772 1294.66 76.3772C1300.83 76.2838 1306.25 76.1904 1310.91 76.097C1315.58 76.0036 1319.04 75.9102 1321.28 75.8168C1321.28 76.097 1321.28 76.5173 1321.28 77.0776C1321.28 77.638 1321.28 78.245 1321.28 78.8987C1321.28 80.5798 1321.23 82.4943 1321.14 84.6423C1321.14 86.6969 1321.19 88.1444 1321.28 88.9849C1318.39 88.8915 1314.09 88.7982 1308.39 88.7048C1302.7 88.6114 1296.16 88.5647 1288.78 88.5647C1281.5 88.4713 1273.89 88.4246 1265.95 88.4246C1258.01 88.4246 1250.26 88.4713 1242.69 88.5647C1235.13 88.5647 1228.26 88.6114 1222.1 88.7048C1216.03 88.7982 1211.22 88.9382 1207.67 89.125Z" fill="#1B1718"/>
<path d="M1091.26 132.692C1090.61 132.132 1089.39 131.244 1087.62 130.03C1085.94 128.723 1084.68 127.882 1083.84 127.509C1084.02 125.828 1084.16 123.259 1084.26 119.804C1084.35 116.348 1084.44 112.333 1084.54 107.757C1084.63 103.18 1084.68 98.4174 1084.68 93.4677C1084.77 88.518 1084.82 83.7551 1084.82 79.1789C1084.82 74.5094 1084.82 70.3535 1084.82 66.7113C1084.82 62.9756 1084.82 60.1272 1084.82 58.166C1084.82 57.0453 1084.82 56.3449 1084.82 56.0647C1084.82 50.8348 1084.77 46.3054 1084.68 42.4763C1084.58 38.6473 1084.49 36.1258 1084.4 34.9117C1085.42 34.9117 1086.87 34.9584 1088.74 35.0518C1090.61 35.1452 1092.47 35.2385 1094.34 35.3319C1096.3 35.3319 1097.7 35.3319 1098.54 35.3319C1098.45 36.7328 1098.31 39.3477 1098.12 43.1768C1097.94 46.9124 1097.84 51.2084 1097.84 56.0647C1097.84 58.0259 1097.84 60.9677 1097.84 64.8901C1097.84 68.7191 1097.84 73.0618 1097.84 77.9181C1097.84 82.7745 1097.8 87.6775 1097.7 92.6272C1097.7 97.5769 1097.7 102.153 1097.7 106.356C1097.7 110.465 1097.7 113.78 1097.7 116.302C1102.28 114.714 1107.37 112.613 1112.97 109.998C1118.58 107.383 1124.37 104.441 1130.34 101.172C1136.32 97.9038 1142.16 94.495 1147.85 90.9462C1153.55 87.3039 1158.78 83.7084 1163.54 80.1595C1168.31 76.6107 1172.28 73.2486 1175.45 70.0733C1175.73 71.2874 1176.11 72.875 1176.57 74.8362C1177.04 76.7975 1177.51 78.6653 1177.97 80.4397C1178.53 82.1207 1178.95 83.3348 1179.23 84.0819C1175.31 87.5374 1170.64 91.1796 1165.23 95.0087C1159.81 98.7443 1153.93 102.48 1147.57 106.216C1141.32 109.951 1134.87 113.5 1128.24 116.862C1121.71 120.224 1115.26 123.259 1108.91 125.968C1102.65 128.676 1096.77 130.917 1091.26 132.692Z" fill="#1B1718"/>
<path d="M959.719 127.789C959.719 126.948 959.672 125.781 959.579 124.287C959.579 122.792 959.579 121.298 959.579 119.804C959.579 118.31 959.532 117.236 959.439 116.582C961.774 116.675 964.949 116.769 968.965 116.862C972.981 116.955 977.51 117.002 982.553 117.002C987.69 117.002 993.06 117.002 998.663 117.002C1004.27 117.002 1009.78 117.002 1015.19 117.002C1015.38 115.134 1015.57 112.66 1015.75 109.578C1016.03 106.496 1016.31 103.274 1016.59 99.9117C1016.97 96.5496 1017.25 93.4677 1017.43 90.666C1017.71 87.7709 1017.9 85.5762 1018 84.0819C1016.41 84.0819 1014.12 84.1286 1011.13 84.222C1008.14 84.3154 1004.83 84.4088 1001.18 84.5022C997.636 84.5022 994.04 84.5489 990.398 84.6423C986.756 84.7357 983.394 84.8291 980.312 84.9224C977.323 85.0158 974.989 85.1092 973.308 85.2026C973.401 84.5489 973.401 83.4749 973.308 81.9806C973.214 80.393 973.121 78.852 973.027 77.3578C973.027 75.7701 972.981 74.6962 972.887 74.1358C975.035 74.1358 978.164 74.1358 982.273 74.1358C986.382 74.1358 990.912 74.1358 995.861 74.1358C1000.81 74.0424 1005.67 73.949 1010.43 73.8556C1015.29 73.7622 1019.49 73.6688 1023.04 73.5755C1026.59 73.4821 1028.97 73.3887 1030.18 73.2953C1030.09 74.3226 1029.9 76.1904 1029.62 78.8987C1029.34 81.5137 1029.06 84.6423 1028.78 88.2845C1028.5 91.8334 1028.17 95.4756 1027.8 99.2112C1027.52 102.853 1027.24 106.262 1026.96 109.438C1026.77 112.613 1026.63 115.088 1026.54 116.862C1031.96 116.862 1036.81 116.815 1041.11 116.722C1045.41 116.629 1048.72 116.535 1051.06 116.442C1051.06 117.096 1051.01 118.216 1050.92 119.804C1050.82 121.298 1050.73 122.839 1050.64 124.427C1050.64 125.921 1050.64 126.995 1050.64 127.649C1048.39 127.555 1044.94 127.462 1040.27 127.369C1035.69 127.275 1030.42 127.228 1024.44 127.228C1018.46 127.135 1012.25 127.088 1005.81 127.088C999.364 127.088 993.106 127.135 987.036 127.228C980.966 127.228 975.502 127.275 970.646 127.369C965.883 127.462 962.241 127.602 959.719 127.789Z" fill="#1B1718"/>
<path d="M920.215 142.638C916.759 140.023 912.603 137.268 907.747 134.373C902.891 131.478 897.801 128.629 892.478 125.828C887.154 123.026 881.925 120.458 876.788 118.123C871.745 115.788 867.262 113.92 863.34 112.519C864.087 111.586 864.974 110.325 866.001 108.737C867.029 107.149 868.009 105.609 868.943 104.114C869.971 102.527 870.718 101.313 871.185 100.472C875.667 102.153 880.524 104.208 885.754 106.636C891.077 109.064 896.4 111.679 901.723 114.481C907.14 117.282 912.183 120.084 916.853 122.886C921.616 125.688 925.678 128.303 929.04 130.731C928.387 131.571 927.453 132.739 926.239 134.233C925.118 135.727 923.997 137.221 922.876 138.716C921.756 140.303 920.869 141.611 920.215 142.638ZM923.997 58.5863C921.382 56.6251 918.114 54.5238 914.191 52.2824C910.362 50.041 906.253 47.7996 901.864 45.5582C897.568 43.3169 893.272 41.2623 888.976 39.3944C884.773 37.5266 880.944 36.0324 877.489 34.9117C878.049 34.0712 878.796 32.8571 879.73 31.2695C880.757 29.5884 881.738 27.9541 882.672 26.3664C883.606 24.6854 884.259 23.5647 884.633 23.0044C887.995 24.1251 891.824 25.666 896.12 27.6272C900.509 29.495 904.945 31.5963 909.428 33.9311C914.004 36.1725 918.254 38.4138 922.176 40.6552C926.192 42.8032 929.461 44.7177 931.982 46.3988C931.328 47.2393 930.441 48.5001 929.32 50.1811C928.293 51.7687 927.266 53.3564 926.239 54.944C925.211 56.5317 924.464 57.7457 923.997 58.5863ZM913.211 95.2888C909.475 92.4871 904.992 89.6387 899.762 86.7436C894.626 83.8485 889.396 81.1868 884.073 78.7587C878.749 76.2371 873.893 74.2759 869.504 72.8751C870.064 72.0345 870.811 70.8205 871.745 69.2328C872.772 67.5518 873.753 65.9174 874.687 64.3298C875.714 62.7422 876.415 61.6215 876.788 60.9677C879.963 61.995 883.512 63.3959 887.435 65.1703C891.45 66.9447 895.513 68.8593 899.622 70.9138C903.731 72.9684 907.654 75.0697 911.389 77.2177C915.218 79.2723 918.487 81.1868 921.195 82.9613C920.542 83.8018 919.654 85.0626 918.534 86.7436C917.413 88.3312 916.339 89.9656 915.312 91.6466C914.378 93.2343 913.678 94.4483 913.211 95.2888Z" fill="#1B1718"/>
<path d="M717.51 121.485C717.603 120.551 717.603 119.197 717.51 117.422C717.51 115.555 717.463 113.733 717.37 111.959C717.37 110.091 717.323 108.784 717.23 108.037C719.378 108.13 722.973 108.223 728.016 108.317C733.153 108.317 739.177 108.317 746.087 108.317C753.092 108.223 760.423 108.177 768.081 108.177V56.7651C762.384 56.7651 756.921 56.8118 751.691 56.9052C746.461 56.9052 741.838 56.9052 737.822 56.9052C733.9 56.9052 730.911 56.9519 728.857 57.0453C728.857 56.1114 728.81 54.7572 728.717 52.9828C728.717 51.115 728.67 49.2938 728.577 47.5194C728.577 45.745 728.53 44.4375 728.437 43.597C730.958 43.6904 734.6 43.7838 739.363 43.8772C744.22 43.9706 749.73 44.064 755.894 44.1574C762.057 44.1574 768.455 44.1574 775.085 44.1574C781.716 44.1574 788.113 44.1574 794.277 44.1574C800.534 44.064 806.091 43.9706 810.947 43.8772C815.897 43.6904 819.633 43.5036 822.154 43.3168C822.154 44.2507 822.108 45.6516 822.014 47.5194C822.014 49.3872 822.014 51.2084 822.014 52.9828C822.014 54.7572 822.014 56.0647 822.014 56.9052C819.866 56.8118 816.738 56.7651 812.628 56.7651C808.519 56.7651 803.85 56.7651 798.62 56.7651C793.39 56.7651 787.88 56.7651 782.09 56.7651V108.177C790.215 108.083 797.919 108.037 805.204 108.037C812.488 107.943 818.745 107.85 823.975 107.756C829.205 107.663 832.661 107.57 834.342 107.476C834.342 108.223 834.295 109.531 834.202 111.399C834.202 113.267 834.202 115.134 834.202 117.002C834.202 118.777 834.202 120.037 834.202 120.785C831.867 120.598 828.318 120.504 823.555 120.504C818.792 120.411 813.189 120.364 806.745 120.364C800.394 120.271 793.623 120.224 786.432 120.224C779.335 120.224 772.237 120.271 765.139 120.364C758.042 120.364 751.271 120.458 744.827 120.644C738.476 120.738 732.919 120.878 728.156 121.065C723.394 121.158 719.845 121.298 717.51 121.485Z" fill="#1B1718"/>
<path d="M602.639 145.44V100.612C598.063 102.667 593.347 104.721 588.491 106.776C583.634 108.831 578.638 110.885 573.501 112.94C573.221 112.006 572.661 110.792 571.82 109.297C571.073 107.71 570.233 106.169 569.299 104.675C568.458 103.087 567.758 101.966 567.198 101.313C578.685 97.8571 589.565 93.7946 599.838 89.125C610.204 84.4555 619.777 79.1322 628.555 73.1552H571.68V61.9483H622.952V46.5388H587.23V35.3319H622.952V18.1013H635.84V35.3319H657.833V46.5388H635.84V61.9483H643.544C657.18 50.5546 668.013 37.3398 676.044 22.3039L687.391 28.3276C683.189 34.865 678.846 40.9354 674.363 46.5388C669.881 52.1423 665.305 57.2788 660.635 61.9483H698.879V73.1552H648.027C641.21 78.7587 633.832 83.8952 625.894 88.5647H675.344V145.44H602.639ZM615.247 134.793H662.736V121.765H615.247V134.793ZM615.247 111.959H662.736V99.3513H615.247V111.959Z" fill="#1B1718"/>
<path d="M486.088 145.86V106.916H459.051V139.836H446.303V96.4095H486.088V88.4246H459.051V58.3061H525.872V88.4246H498.975V96.4095H539.46V127.088C539.46 131.665 538.293 134.98 535.958 137.035C533.717 139.183 529.981 140.256 524.751 140.256H513.965C513.778 138.389 513.404 136.287 512.844 133.953C512.284 131.524 511.677 129.563 511.023 128.069H521.389C523.35 128.069 524.705 127.742 525.452 127.088C526.292 126.435 526.713 125.174 526.713 123.306V106.916H498.975V145.86H486.088ZM432.294 71.7543V40.235H462.133C460.732 37.8068 458.958 35.0518 456.81 31.9699C454.755 28.7946 452.934 26.3664 451.346 24.6854L462.553 18.6617C463.861 20.1559 465.308 22.0704 466.896 24.4052C468.577 26.74 470.118 29.0748 471.519 31.4095C473.013 33.6509 474.087 35.4253 474.741 36.7328C473.993 37.1064 473.013 37.62 471.799 38.2737C470.585 38.8341 469.324 39.4878 468.016 40.235H486.088V17.9612H498.975V40.235H517.327C516.113 39.5812 514.805 38.9275 513.404 38.2737C512.003 37.62 510.929 37.1531 510.182 36.8729C512.144 34.1646 514.151 31.036 516.206 27.4871C518.261 23.9383 519.755 20.9498 520.689 18.5216L532.316 23.5647C531.102 26.1796 529.608 29.0281 527.833 32.1099C526.059 35.0985 524.331 37.8068 522.65 40.235H552.909V71.7543H540.441V50.8815H444.762V71.7543H432.294ZM471.098 79.0388H513.825V67.6918H471.098V79.0388Z" fill="#1B1718"/>
<path d="M370.516 127.228V115.181H348.243V105.515H370.516V95.9892H351.605V86.3233H370.516V77.3578H350.344V67.8319H370.516V58.5862H345.861V49.6207H370.516V40.375H351.184V30.8492H370.516V18.5216H381.583V30.8492H403.717V49.6207H413.943V58.5862H403.717V77.3578H381.583V86.3233H403.437V95.9892H381.583V105.515H408.62V115.181H381.583V127.228H370.516ZM320.646 145.3C320.085 144.646 319.245 143.852 318.124 142.918C317.003 141.984 315.883 141.097 314.762 140.256C313.641 139.416 312.707 138.856 311.96 138.575C318.124 132.972 323.214 126.154 327.23 118.123C325.269 114.854 323.447 111.165 321.766 107.056C320.179 102.853 318.638 98.1839 317.144 93.0474L326.809 90.1056C327.557 93.1875 328.35 96.0826 329.191 98.791C330.125 101.499 331.105 104.021 332.133 106.356C334.934 97.8571 336.475 88.8915 336.756 79.4591L317.144 76.6573C318.077 74.7895 319.245 72.268 320.646 69.0927C322.047 65.9174 323.494 62.5553 324.988 59.0065C326.483 55.3642 327.883 51.9555 329.191 48.7802C330.498 45.5115 331.479 42.8499 332.133 40.7953H318.264V29.5884H343.2L346.562 32.1099C345.721 34.6315 344.647 37.5733 343.34 40.9354C342.126 44.204 340.818 47.5661 339.417 51.0216C338.016 54.477 336.662 57.699 335.355 60.6875C334.141 63.676 333.113 66.1042 332.273 67.972L348.103 70.0733C348.103 79.9727 347.355 88.8915 345.861 96.8298C344.46 104.675 342.359 111.819 339.557 118.263C343.853 123.119 349.177 126.528 355.527 128.489C361.971 130.45 369.863 131.431 379.202 131.431C386.766 131.431 393.584 131.338 399.654 131.151C405.725 130.964 410.581 130.684 414.223 130.31C413.943 131.057 413.616 132.225 413.243 133.813C412.869 135.4 412.542 136.941 412.262 138.435C411.982 140.023 411.795 141.237 411.702 142.078H379.342C368.975 142.078 360.197 140.957 353.006 138.716C345.815 136.568 339.697 132.925 334.654 127.789C330.825 134.139 326.156 139.976 320.646 145.3ZM299.773 145.58V68.3922C297.998 71.5675 296.177 74.556 294.309 77.3578C292.442 80.1595 290.621 82.681 288.846 84.9224C287.912 83.7083 286.511 82.2608 284.644 80.5797C282.776 78.8987 281.188 77.6846 279.881 76.9375C282.869 73.482 285.811 69.2795 288.706 64.3298C291.695 59.2866 294.496 53.9634 297.111 48.3599C299.82 42.6631 302.154 37.153 304.116 31.8298C306.077 26.5065 307.478 21.8369 308.318 17.8211L320.085 20.6229C319.151 24.2651 317.891 28.1875 316.303 32.3901C314.809 36.5927 313.128 40.8887 311.26 45.278V145.58H299.773ZM381.583 67.8319H393.07V58.5862H381.583V67.8319ZM381.583 49.6207H393.07V40.375H381.583V49.6207Z" fill="#1B1718"/>
<path fill-rule="evenodd" clip-rule="evenodd" d="M95.875 81.25L168.188 5.6875L172.586 10.0864L95.875 81.25H110.5L175.5 13L179.899 17.3989L110.5 81.25H125.125L182.812 20.3125L187.211 24.7114L125.125 81.25H139.75L190.125 27.625L194.524 32.0239L139.75 81.25H154.375L197.438 34.9375L201.836 39.3364L154.375 81.25H169L204.75 42.25L209.149 46.6489L169 81.25H183.625L212.062 49.5625L216.461 53.9614L183.625 81.25H198.25L219.375 56.875L223.774 61.2739L198.25 81.25H212.875L226.688 64.1875L231.086 68.5864L212.875 81.25H227.5L234 71.5L238.399 75.8989L227.5 81.25H243.75L162.5 162.5L121.875 121.875L81.25 162.5L0 81.25L81.25 0L121.875 40.625L162.5 0L165.274 2.77393L81.9229 81.25H95.875ZM81.25 81.25V73.125L84.1636 78.3364L86.9375 75.5625L81.25 73.125V58.5L91.4761 71.0239L94.25 68.25L81.25 58.5V43.875L98.7886 63.7114L101.562 60.9375L81.25 43.875V29.25L106.101 56.3989L108.875 53.625L81.25 29.25V14.625L113.414 49.0864L116.188 46.3125L81.25 14.625V1.625L3.92285 81.25H13L81.25 14.625L18.5479 81.25H27.625L81.25 29.25L33.1729 81.25H42.25L81.25 43.875L47.7979 81.25H56.875L81.25 58.5L62.4229 81.25H71.5L81.25 73.125L77.0479 81.25H81.25ZM81.25 146.25V155.721L116.86 116.86L114.562 114.562L81.25 146.25ZM81.25 131.625V141.096L109.548 109.548L107.25 107.25L81.25 131.625ZM81.25 117V126.471L102.235 102.235L99.9375 99.9375L81.25 117ZM81.25 102.375V111.846L94.9229 94.9229L92.625 92.625L81.25 102.375ZM81.25 87.75V97.2207L87.6104 87.6104L85.3125 85.3125L81.25 87.75Z" fill="#1B1718"/>
</svg>
